<?xml version="1.0" encoding="utf-8"?>
<!-- Generator: Adobe Illustrator 17.1.0, SVG Export Plug-In . SVG Version: 6.00 Build 0)  -->
<!DOCTYPE svg PUBLIC "-//W3C//DTD SVG 1.1//EN" "http://www.w3.org/Graphics/SVG/1.1/DTD/svg11.dtd">
<svg version="1.1" id="Layer_1" xmlns="http://www.w3.org/2000/svg" xmlns:xlink="http://www.w3.org/1999/xlink" x="0px" y="0px"
	 viewBox="0 0 128 128" enable-background="new 0 0 128 128" xml:space="preserve">
<rect fill="#FF8A80" width="128" height="128"/>
<g>
	<path fill="none" d="M89.1,102.8c0.1-0.1,0.3-0.2,0.4-0.3C89.4,102.5,89.2,102.6,89.1,102.8z"/>
	<path fill="none" d="M91.3,100.9c-0.2,0.1-0.3,0.3-0.5,0.4C91,101.1,91.1,101,91.3,100.9z"/>
	<path fill="none" d="M73.3,110.1c-0.1,0-0.2,0-0.3,0.1c0,0,0,0,0,0C73.1,110.1,73.2,110.1,73.3,110.1z"/>
	<path fill="none" d="M70.9,110.5c-0.1,0-0.1,0-0.2,0h0C70.8,110.5,70.8,110.5,70.9,110.5z"/>
	<rect x="75.7" y="109.5" fill="none" width="0" height="0"/>
	<path fill="none" d="M87,104.3c0.1-0.1,0.2-0.1,0.3-0.2C87.2,104.2,87.1,104.2,87,104.3z"/>
	<path fill="none" d="M78,108.8c0.2-0.1,0.3-0.1,0.5-0.2C78.3,108.7,78.2,108.7,78,108.8z"/>
	<path fill="none" d="M82.9,106.7c0.1,0,0.1-0.1,0.2-0.1C83,106.7,83,106.7,82.9,106.7z"/>
	<path fill="none" d="M84.9,105.6c0.2-0.1,0.3-0.2,0.5-0.3C85.2,105.4,85.1,105.5,84.9,105.6z"/>
	<path fill="none" d="M80.3,107.9c0.1-0.1,0.3-0.1,0.4-0.2C80.6,107.8,80.5,107.9,80.3,107.9z"/>
	<path fill="none" d="M92.9,99.3L92.9,99.3C92.8,99.3,92.8,99.3,92.9,99.3C92.9,99.3,92.9,99.3,92.9,99.3z"/>
	<path fill="none" d="M30.3,41.7c-0.3,0-0.5,0.1-0.7,0.1C29.8,41.8,30.1,41.8,30.3,41.7z"/>
	<path fill="none" d="M66.2,110.9c-0.6,0-1.2,0-1.9-0.1c0,0,0,0,0,0C64.9,110.8,65.5,110.9,66.2,110.9z"/>
	<path fill="#F2A600" d="M41.5,101.3c0.3,0.2,0.5,0.5,0.8,0.7C42,101.7,41.8,101.5,41.5,101.3z"/>
	<path fill="#F2A600" d="M42.9,102.4c0.2,0.2,0.5,0.4,0.8,0.6C43.4,102.8,43.1,102.6,42.9,102.4z"/>
	<path fill="#F2A600" d="M44.2,103.5c0.2,0.2,0.5,0.4,0.8,0.5C44.8,103.9,44.5,103.7,44.2,103.5z"/>
	<path fill="#F2A600" d="M98.3,35.4L98.3,35.4C98.3,35.5,98.3,35.5,98.3,35.4C98.3,35.5,98.3,35.5,98.3,35.4z"/>
	<path fill="#F2A600" d="M38.7,98.3c0.4,0.4,0.8,0.8,1.1,1.3C39.4,99.2,39,98.8,38.7,98.3z"/>
	<polygon fill="#F2A600" points="31.1,30.4 31.1,30.4 31.1,30.4 	"/>
	<path fill="#F2A600" d="M46.5,105.1c0.2,0.1,0.3,0.2,0.5,0.3C46.8,105.3,46.7,105.2,46.5,105.1z"/>
	<path fill="#F2A600" d="M51.1,107.5c0.1,0,0.2,0.1,0.3,0.1C51.3,107.6,51.2,107.6,51.1,107.5z"/>
	<path fill="#F2A600" d="M48,105.9c0.2,0.1,0.3,0.2,0.5,0.3C48.3,106.1,48.1,106,48,105.9z"/>
	<path fill="#F2A600" d="M61.6,110.5C61.6,110.5,61.6,110.5,61.6,110.5c-0.3,0-0.6-0.1-0.9-0.1l0,0C61,110.4,61.3,110.5,61.6,110.5z
		"/>
	<path fill="#F2A600" d="M88.9,67c-1.6,1.4-3.1,2.7-4.4,3.9c-3.3,3.8-6.3,10.3-1,18.7c5.7-8.1,10.6-17.7,13.2-29.1L88.9,67
		C88.9,67,88.9,67,88.9,67z"/>
	<path fill="#F2A600" d="M41,100.8c-0.3-0.3-0.5-0.5-0.8-0.8C40.5,100.3,40.7,100.5,41,100.8z"/>
	<path fill="#F2A600" d="M49.5,106.8c0.1,0.1,0.3,0.1,0.4,0.2C49.8,106.9,49.7,106.8,49.5,106.8z"/>
	<path fill="#F2A600" d="M59,110.1c0,0,0.1,0,0.1,0C59.1,110.1,59,110.1,59,110.1z"/>
	<path fill="#F2A600" d="M12.9,127.4c4.5-7.1,8.6-12.7,11.7-16.6c1.5-2,2.8-3.5,3.7-4.5c1-1.1,1.5-1.7,1.5-1.7l0.2-0.2
		c2.4-2.7,5.3-4.5,8.4-5.4c0.1-0.2,0.2-0.4,0.2-0.5c0-0.1,0-0.2,0.1-0.2c13.6-13.3,4.7-26.5-1.5-32.9l-4.4-3.8
		c-2.6,8.7-8.5,18.2-20.1,26.9l0,0C6.3,92.6,2.1,99.9,2.1,108.2c0,8.2,4.1,15.4,10.4,19.8h0C12.6,127.8,12.8,127.6,12.9,127.4z"/>
	<path fill="#FFE0B2" d="M67.1,110.9c-0.3,0-0.6,0-1,0c-0.3,0-0.6,0-1,0H67.1z"/>
	<path fill="#F2A600" d="M30.3,41.7c3.1-0.4,6.1,1,7.7,3.4c10.3-2,11-11.5,12.6-14.1c4.5,5.8,13.3,17.8,39.5,14.5
		c1.6-2.7,4.7-4.3,8-3.8c0.4,0,0.7,0.1,1,0.2c0,0,0,0,0,0c-0.1-2.2-0.3-4.4-0.8-6.4c0,0,0-0.1,0-0.1C94.9,19.6,80.8,7.8,64,7.8
		c-15,0-27.8,9.4-32.8,22.6c0,0,0,0,0,0c-1.4,3.6-2.2,7.6-2.3,11.7c0,0,0,0,0,0c0.2-0.1,0.5-0.1,0.7-0.2
		C29.8,41.8,30.1,41.8,30.3,41.7z"/>
	<path fill="#80DEEA" d="M93,99.4l-0.2-0.1c0,0,0,0,0,0c0,0,0,0,0,0c-0.5,0.5-1,1-1.5,1.5c-0.2,0.1-0.3,0.3-0.5,0.4
		c-0.4,0.4-0.9,0.8-1.3,1.1c-0.1,0.1-0.3,0.2-0.4,0.3c-0.6,0.5-1.2,0.9-1.8,1.3c-0.1,0.1-0.2,0.1-0.3,0.2c-0.5,0.4-1.1,0.7-1.6,1
		c-0.2,0.1-0.3,0.2-0.5,0.3c-0.6,0.3-1.2,0.7-1.8,1c-0.1,0-0.1,0.1-0.2,0.1c-0.7,0.4-1.4,0.7-2.1,1c-0.1,0.1-0.3,0.1-0.4,0.2
		c-0.6,0.2-1.2,0.5-1.8,0.7c-0.2,0.1-0.3,0.1-0.5,0.2c-0.8,0.3-1.5,0.5-2.3,0.7c0,0,0,0,0,0c0,0,0,0,0,0c0,0,0,0,0,0
		c-0.8,0.2-1.6,0.4-2.4,0.6c-0.1,0-0.2,0-0.3,0.1c0,0,0,0,0,0c-0.7,0.1-1.4,0.3-2.1,0.4c-0.1,0-0.1,0-0.2,0h0
		c-1.5,0.2-3,0.3-4.5,0.4c0.3,0,0.6,0,1,0h-1.9c0.3,0,0.6,0,1,0c-0.6,0-1.2,0-1.9-0.1c0,0,0,0,0,0c-0.9-0.1-1.8-0.2-2.7-0.3
		c0,0,0,0,0,0c-0.3,0-0.6-0.1-0.9-0.1l0,0c-0.5-0.1-1.1-0.2-1.6-0.3c0,0-0.1,0-0.1,0c-2.7-0.6-5.2-1.4-7.6-2.4
		c-0.1,0-0.2-0.1-0.3-0.1c-0.4-0.2-0.8-0.4-1.2-0.5c-0.1-0.1-0.3-0.1-0.4-0.2c-0.4-0.2-0.7-0.4-1-0.5c-0.2-0.1-0.3-0.2-0.5-0.3
		c-0.3-0.2-0.7-0.4-1-0.6c-0.2-0.1-0.3-0.2-0.5-0.3c-0.5-0.3-1-0.6-1.5-1c-0.3-0.2-0.5-0.4-0.8-0.5c-0.2-0.2-0.4-0.3-0.6-0.5
		c-0.3-0.2-0.5-0.4-0.8-0.6c-0.2-0.2-0.4-0.3-0.6-0.5c-0.3-0.2-0.5-0.4-0.8-0.7c-0.2-0.2-0.3-0.3-0.5-0.5c-0.3-0.3-0.5-0.5-0.8-0.8
		c-0.1-0.1-0.3-0.3-0.4-0.4c-0.4-0.4-0.8-0.8-1.1-1.3c-0.1,0.2-0.2,0.4-0.2,0.5c-3.1,0.9-6,2.7-8.4,5.4l-0.2,0.2
		c0,0-0.5,0.6-1.5,1.7c-0.9,1.1-2.2,2.6-3.7,4.5c-3.1,3.9-7.2,9.5-11.7,16.6c-0.1,0.2-0.2,0.4-0.4,0.6H118
		c-2.7-5.4-5.1-9.8-7.1-13.1c-1.3-2.2-2.3-3.9-3.1-5.1c-0.9-1.3-1.3-2-1.3-2l-0.2-0.3c-0.6-0.9-1.2-1.7-1.9-2.4
		C101.1,101.6,97,99.7,93,99.4C93,99.4,93,99.4,93,99.4L93,99.4z"/>
	<path fill="#FFE0B2" d="M38.8,98.1c-0.1,0.1-0.1,0.2-0.1,0.2c0.4,0.4,0.8,0.8,1.1,1.3c0.1,0.1,0.3,0.3,0.4,0.4
		c0.3,0.3,0.5,0.5,0.8,0.8c0.2,0.2,0.3,0.3,0.5,0.5c0.3,0.2,0.5,0.5,0.8,0.7c0.2,0.2,0.4,0.3,0.6,0.5c0.2,0.2,0.5,0.4,0.8,0.6
		c0.2,0.2,0.4,0.3,0.6,0.5c0.2,0.2,0.5,0.4,0.8,0.5c0.5,0.3,1,0.7,1.5,1c0.2,0.1,0.3,0.2,0.5,0.3c0.3,0.2,0.7,0.4,1,0.6
		c0.2,0.1,0.3,0.2,0.5,0.3c0.3,0.2,0.7,0.4,1,0.5c0.1,0.1,0.3,0.1,0.4,0.2c0.4,0.2,0.8,0.4,1.2,0.5c0.1,0,0.2,0.1,0.3,0.1
		c2.4,1,4.9,1.9,7.6,2.4c0,0,0.1,0,0.1,0c0.5,0.1,1.1,0.2,1.6,0.3c0.3,0.1,0.6,0.1,0.9,0.1c0.9,0.1,1.8,0.2,2.7,0.3
		c0.6,0,1.2,0.1,1.9,0.1c1.5,0,3.1-0.2,4.5-0.4c0.1,0,0.1,0,0.2,0c0.7-0.1,1.4-0.2,2.1-0.4c0.1,0,0.2,0,0.3-0.1
		c0.8-0.2,1.6-0.4,2.4-0.6c0,0,0,0,0,0c0.8-0.2,1.6-0.5,2.3-0.7c0.2-0.1,0.3-0.1,0.5-0.2c0.6-0.2,1.2-0.5,1.8-0.7
		c0.1-0.1,0.3-0.1,0.4-0.2c0.7-0.3,1.4-0.6,2.1-1c0.1,0,0.1-0.1,0.2-0.1c0.6-0.3,1.2-0.7,1.8-1c0.2-0.1,0.3-0.2,0.5-0.3
		c0.5-0.3,1.1-0.7,1.6-1c0.1-0.1,0.2-0.1,0.3-0.2c0.6-0.4,1.2-0.9,1.8-1.3c0.1-0.1,0.3-0.2,0.4-0.3c0.4-0.4,0.9-0.7,1.3-1.1
		c0.2-0.1,0.3-0.3,0.5-0.4c0.5-0.5,1.1-1,1.5-1.5l0,0l0.2,0.1v0c0,0-0.1,0-0.1-0.1c-4.5-3.5-7.5-6.8-9.4-9.8
		c-5.3-8.4-2.3-14.9,1-18.7c1.3-1.2,2.8-2.5,4.4-3.9c0,0,0,0,0,0l7.8-6.6l5.3-4.5c1.5-1.2,2.6-3,2.9-5.1c0.6-4-2-7.8-5.8-8.8
		c-0.3-0.1-0.7-0.2-1-0.2c-3.3-0.5-6.4,1.1-8,3.8c-26.2,3.3-35-8.7-39.5-14.5C49,33.7,48.4,43.2,38,45.2c-1.7-2.4-4.6-3.9-7.7-3.4
		c-0.3,0-0.5,0.1-0.7,0.1c-0.2,0.1-0.5,0.1-0.7,0.2c-3.6,1.2-5.9,4.8-5.4,8.7c0.3,2.1,1.3,3.8,2.8,5.1l6.5,5.6l4.4,3.8
		C43.5,71.6,52.4,84.8,38.8,98.1z M78.9,49.7c0.9,0,1.6,0.7,1.6,1.6c0,0.9-0.7,1.6-1.6,1.6c-0.9,0-1.6-0.7-1.6-1.6
		C77.3,50.4,78,49.7,78.9,49.7z M53.2,49.7c0.9,0,1.6,0.7,1.6,1.6c0,0.9-0.7,1.6-1.6,1.6c-0.9,0-1.6-0.7-1.6-1.6
		C51.6,50.4,52.3,49.7,53.2,49.7z"/>
	<circle fill="#444444" cx="78.9" cy="51.3" r="1.6"/>
	<circle fill="#444444" cx="53.2" cy="51.3" r="1.6"/>
</g>
</svg>
