<?xml version="1.0" encoding="utf-8"?>
<!-- Generator: Adobe Illustrator 16.0.0, SVG Export Plug-In . SVG Version: 6.00 Build 0)  -->
<!DOCTYPE svg PUBLIC "-//W3C//DTD SVG 1.1//EN" "http://www.w3.org/Graphics/SVG/1.1/DTD/svg11.dtd">
<svg version="1.1" id="Layer_1" xmlns="http://www.w3.org/2000/svg" xmlns:xlink="http://www.w3.org/1999/xlink" x="0px" y="0px"
	 width="168px" height="40px" viewBox="0 0 168 40" enable-background="new 0 0 168 40" xml:space="preserve">
<symbol  id="polymer-logo--lockup" viewBox="0 -40 168 40">
	<g>
		<g>
			<path fill="#666666" d="M69.833-19.172c0-2.573-0.573-4.64-1.72-6.202c-1.146-1.562-2.747-2.342-4.802-2.342
				c-1.058,0-1.981,0.161-2.771,0.482s-1.474,0.81-2.054,1.463v-8.108h-2.879v23.314h2.489l0.233-1.93
				c0.581,0.736,1.276,1.294,2.086,1.673c0.81,0.378,1.759,0.568,2.848,0.568c2.106,0,3.728-0.768,4.864-2.303
				c1.136-1.536,1.704-3.632,1.704-6.288V-19.172z M66.953-18.845c0,1.806-0.379,3.281-1.136,4.428
				c-0.758,1.146-1.894,1.72-3.408,1.72c-0.943,0-1.735-0.205-2.373-0.615c-0.639-0.41-1.155-0.979-1.549-1.705v-8.046
				c0.404-0.737,0.923-1.305,1.557-1.705c0.633-0.399,1.432-0.599,2.396-0.599c1.494,0,2.619,0.576,3.377,1.727
				c0.757,1.152,1.136,2.641,1.136,4.467V-18.845z"/>
			<path fill="#666666" d="M72.329-18.829c0,2.521,0.688,4.581,2.062,6.179c1.375,1.597,3.234,2.396,5.58,2.396
				c2.365,0,4.238-0.796,5.619-2.389c1.379-1.592,2.069-3.655,2.069-6.187v-0.343c0-2.532-0.688-4.588-2.062-6.17
				c-1.375-1.583-3.239-2.374-5.595-2.374c-2.356,0-4.224,0.791-5.604,2.374c-1.38,1.582-2.07,3.639-2.07,6.17V-18.829z
				 M75.225-19.172c0-1.805,0.407-3.289,1.222-4.451s2-1.743,3.557-1.743c1.536,0,2.715,0.581,3.54,1.743s1.238,2.646,1.238,4.451
				v0.343c0,1.785-0.416,3.266-1.246,4.443s-2.018,1.767-3.563,1.767c-1.536,0-2.711-0.589-3.525-1.767s-1.222-2.659-1.222-4.443
				V-19.172z"/>
			<path fill="#666666" d="M93.539-27.405h-2.88v24.28h2.88V-27.405z"/>
			<path fill="#666666" d="M102.787-21.755l0.28-1.074l3.968,12.264h3.223l-6.771-19.439c-0.426-1.142-1.022-2.127-1.789-2.958
				c-0.769-0.83-1.838-1.245-3.207-1.245c-0.198,0-0.421,0.023-0.669,0.07c-0.25,0.046-0.565,0.106-0.95,0.179l0.016,2.335
				c0.072-0.01,0.197-0.023,0.374-0.039c0.176-0.016,0.306-0.023,0.389-0.023c0.976,0,1.699,0.205,2.171,0.615
				c0.473,0.41,0.896,1.149,1.269,2.218l0.685,2.039l-5.867,16.249h3.206L102.787-21.755z"/>
			<path fill="#666666" d="M115.106-10.565l0.172-1.93c0.591,0.726,1.302,1.282,2.132,1.666c0.829,0.384,1.801,0.576,2.91,0.576
				c1.121,0,2.089-0.241,2.903-0.724c0.814-0.482,1.45-1.222,1.906-2.218c0.592,0.924,1.333,1.645,2.226,2.164
				c0.893,0.519,1.94,0.778,3.145,0.778c1.753,0,3.131-0.578,4.132-1.735c1.002-1.157,1.502-2.929,1.502-5.316v-10.101h-2.879
				v10.132c0,1.681-0.307,2.864-0.919,3.549c-0.612,0.685-1.505,1.027-2.677,1.027c-1.142,0-2.046-0.376-2.717-1.128
				c-0.669-0.752-1.06-1.699-1.175-2.84v-10.739h-2.896v10.163c0,1.598-0.308,2.755-0.925,3.471
				c-0.618,0.716-1.508,1.074-2.669,1.074c-1.008,0-1.821-0.21-2.444-0.63c-0.623-0.42-1.1-1.015-1.432-1.782v-12.295h-2.88v16.84
				H115.106z"/>
			<path fill="#666666" d="M146.476-27.716c-2.365,0-4.243,0.747-5.634,2.241s-2.085,3.46-2.085,5.899v0.654
				c0,2.667,0.716,4.778,2.147,6.334s3.17,2.334,5.214,2.334c2.345,0,4.085-0.747,5.222-2.241c1.136-1.494,1.704-3.502,1.704-6.023
				v-1.292h-11.408c0.031-1.629,0.492-2.962,1.386-4c0.893-1.038,2.096-1.556,3.611-1.556c0.975,0,1.814,0.191,2.521,0.576
				c0.706,0.384,1.344,0.95,1.915,1.696l1.758-1.37c-0.644-0.976-1.473-1.762-2.489-2.358
				C149.319-27.417,148.032-27.716,146.476-27.716z M146.118-12.619c-1.193,0-2.177-0.415-2.949-1.245
				c-0.772-0.831-1.253-2.024-1.439-3.58h8.436v0.218c-0.094,1.317-0.451,2.415-1.074,3.292
				C148.469-13.058,147.478-12.619,146.118-12.619z"/>
			<path fill="#666666" d="M164.25-13.148c-0.259,0.032-0.492,0.057-0.7,0.078c-0.208,0.021-0.446,0.031-0.716,0.031
				c-0.976,0-1.779-0.21-2.412-0.63c-0.634-0.42-1.11-1.015-1.433-1.782v-11.953h-2.879v16.84h2.661l0.156-1.898
				c0.478,0.705,1.051,1.25,1.719,1.634c0.67,0.384,1.445,0.576,2.328,0.576c0.197,0,0.43-0.026,0.7-0.078
				c0.27-0.052,0.461-0.099,0.575-0.14V-13.148z"/>
		</g>
	</g>
	<g>
		<g>
			<polygon fill="#303F9F" points="12.092,-20 8.123,-26.875 12.092,-33.75 16.062,-26.875 			"/>
			<polygon fill="#3F51B5" points="35.908,-6.25 31.938,-13.125 35.908,-20 39.877,-13.125 			"/>
			<polygon fill="#7986CB" points="39.877,-13.125 27.969,-33.75 35.908,-33.75 43.847,-20 			"/>
			<polygon fill="#FF4081" points="27.969,-6.25 12.092,-33.75 20.031,-33.75 35.908,-6.25 			"/>
			<polygon fill="#536DFE" points="12.092,-6.25 4.153,-20 8.123,-26.875 20.031,-6.25 			"/>
			<polygon fill="#FFFFFF" fill-opacity="0.2" points="27.969,-6.25 31.938,-13.125 35.908,-6.25 			"/>
			<polygon fill="#FFFFFF" fill-opacity="0.1" points="24,-13.125 27.969,-6.25 31.938,-13.125 			"/>
			<polygon fill="#FFFFFF" fill-opacity="0" points="24,-13.125 27.969,-20 31.938,-13.125 			"/>
			<polygon fill-opacity="0.1" points="20.031,-20 24,-13.125 27.969,-20 			"/>
			<polygon fill-opacity="0.2" points="20.031,-20 24,-26.875 27.969,-20 			"/>
			<polygon fill-opacity="0.3" points="16.062,-26.875 20.031,-20 24,-26.875 			"/>
			<polygon fill-opacity="0.4" points="16.062,-26.875 20.031,-33.75 24,-26.875 			"/>
			<polygon fill-opacity="0.5" points="12.092,-33.75 16.062,-26.875 20.031,-33.75 			"/>
			<polygon fill="#FFFFFF" fill-opacity="0.2" points="12.092,-6.25 16.062,-13.125 20.031,-6.25 			"/>
			<polygon fill="#FFFFFF" fill-opacity="0.1" points="8.123,-13.125 12.092,-6.25 16.062,-13.125 			"/>
			<polygon fill="#FFFFFF" fill-opacity="0" points="8.123,-13.125 12.092,-20 16.062,-13.125 			"/>
			<polygon fill-opacity="0.1" points="4.153,-20 8.123,-13.125 12.092,-20 			"/>
			<polygon fill-opacity="0.2" points="4.153,-20 8.123,-26.875 12.092,-20 			"/>
			<polygon fill="#FFFFFF" fill-opacity="0" points="16.062,-26.875 12.092,-20 8.123,-26.875 			"/>
			<polygon fill-opacity="0.2" points="16.062,-26.875 12.092,-33.75 8.123,-26.875 			"/>
			<polygon fill-opacity="0.2" points="39.877,-13.125 35.908,-6.25 31.938,-13.125 			"/>
			<polygon fill="#FFFFFF" fill-opacity="0" points="39.877,-13.125 35.908,-20 31.938,-13.125 			"/>
			<g>
				<polygon fill="#FFFFFF" fill-opacity="0.2" points="35.908,-20 39.877,-13.125 43.847,-20 				"/>
				<polygon fill="#FFFFFF" fill-opacity="0.1" points="35.908,-20 39.877,-26.875 43.847,-20 				"/>
				<polygon fill="#FFFFFF" fill-opacity="0" points="31.938,-26.875 35.908,-20 39.877,-26.875 				"/>
				<polygon fill-opacity="0.1" points="31.938,-26.875 35.908,-33.75 39.877,-26.875 				"/>
				<polygon fill-opacity="0.2" points="27.969,-33.75 31.938,-26.875 35.908,-33.75 				"/>
			</g>
		</g>
		<polygon fill="none" points="44,-40 4,-40 4,0 44,0 		"/>
	</g>
	<polygon fill="none" points="168,-40 0,-40 0,0 168,0 	"/>
</symbol>
<use xlink:href="#polymer-logo--lockup"  width="168" height="40" y="-40" transform="matrix(1 0 0 -1 0 0)" overflow="visible"/>
</svg>
