<?xml version="1.0" encoding="utf-8"?>
<!-- Generator: Adobe Illustrator 16.0.0, SVG Export Plug-In . SVG Version: 6.00 Build 0)  -->
<!DOCTYPE svg PUBLIC "-//W3C//DTD SVG 1.1//EN" "http://www.w3.org/Graphics/SVG/1.1/DTD/svg11.dtd">
<svg version="1.1" id="Layer_1" xmlns="http://www.w3.org/2000/svg" xmlns:xlink="http://www.w3.org/1999/xlink" x="0px" y="0px"
	 width="164px" height="112px" viewBox="18 44 164 112" enable-background="new 18 44 164 112" xml:space="preserve">
<polygon fill="#FF4081" points="126,128 126,72 126,44 98,72 98,128 126,156 154,156 154,128 "/>
<polygon opacity="0.2" fill="#FFFFFF" enable-background="new    " points="126,44 126,72 98,72 "/>
<polygon opacity="0.1" fill="#FFFFFF" enable-background="new    " points="98,100 98,72 126,72 "/>
<polygon opacity="0.1" enable-background="new    " points="126,128 126,100 98,100 "/>
<polygon opacity="0.2" enable-background="new    " points="126,128 98,128 98,100 "/>
<polygon opacity="0.5" enable-background="new    " points="126,128 154,128 154,156 "/>
<polygon opacity="0.4" enable-background="new    " points="126,128 126,156 154,156 "/>
<polygon opacity="0.3" enable-background="new    " points="126,156 126,128 98,128 "/>
<polygon fill="#949ED5" points="154,44 126,44 126,72 154,72 154,128 154,156 182,128 182,72 "/>
<polygon opacity="0.4" enable-background="new    " points="126,44 154,44 154,72 "/>
<polygon opacity="0.5" enable-background="new    " points="126,44 126,72 154,72 "/>
<polygon opacity="0.2" enable-background="new    " points="182,100 182,72 154,72 "/>
<polygon opacity="0.1" enable-background="new    " points="182,100 154,100 154,72 "/>
<polygon opacity="0.1" fill="#FFFFFF" enable-background="new    " points="154,128 182,128 182,100 "/>
<polygon opacity="0.3" enable-background="new    " points="154,44 154,72 182,72 "/>
<polygon opacity="0.2" fill="#FFFFFF" enable-background="new    " points="154,156 154,128 182,128 "/>
<polygon fill="#2962FF" points="46,44 18,72 46,72 46,156 74,156 74,44 "/>
<circle fill="#324191" cx="88" cy="148" r="8"/>
<polygon opacity="0.2" fill="#FFFFFF" enable-background="new    " points="46,72 46,44 74,44 "/>
<polygon opacity="0.1" fill="#FFFFFF" enable-background="new    " points="46,72 74,72 74,44 "/>
<polygon fill-opacity="0" points="46,72 74,72 74,100 "/>
<polygon opacity="0.1" enable-background="new    " points="46,72 46,100 74,100 "/>
<polygon opacity="0.3" enable-background="new    " points="46,128 74,128 74,100 "/>
<polygon opacity="0.2" enable-background="new    " points="46,128 46,100 74,100 "/>
<polygon opacity="0.4" enable-background="new    " points="46,128 74,128 74,156 "/>
<polygon opacity="0.5" enable-background="new    " points="46,128 46,156 74,156 "/>
<polygon opacity="0.3" fill="#FFFFFF" enable-background="new    " points="46,44 46,72 18,72 "/>
</svg>
