<svg xmlns="http://www.w3.org/2000/svg" width="416" height="286" viewBox="0 0 416 286"><path fill="#303F9F" d="M84.157 143l-41.28 71.5 41.28 71.5 41.28-71.5"/><path fill="#3F51B5" d="M331.842 0l-41.28 71.5 41.28 71.5 41.28-71.5"/><path fill="#7986CB" d="M373.12 71.5L249.28 286h82.564L414.4 143"/><path fill="#FF4081" d="M249.278 0L84.158 286h82.563L331.843 0"/><path fill="#536DFE" d="M84.157 0L1.597 143l41.28 71.5L166.722 0"/><path fill="#FFF" fill-opacity=".2" d="M249.278 0l41.283 71.5L331.843 0"/><path fill="#FFF" fill-opacity=".1" d="M208 71.5L249.278 0l41.283 71.5"/><path fill="none" d="M208 71.5l41.278 71.5 41.283-71.5"/><path fill-opacity=".1" d="M166.72 143L208 71.5l41.278 71.5"/><path fill-opacity=".2" d="M166.72 143L208 214.5l41.278-71.5"/><path fill-opacity=".3" d="M125.438 214.5L166.72 143 208 214.5"/><path fill-opacity=".4" d="M125.438 214.5L166.72 286 208 214.5"/><path fill-opacity=".5" d="M84.157 286l41.28-71.5 41.284 71.5"/><path fill="#FFF" fill-opacity=".2" d="M84.157 0l41.28 71.5L166.722 0"/><path fill="#FFF" fill-opacity=".1" d="M42.878 71.5L84.158 0l41.28 71.5"/><path fill="none" d="M42.878 71.5l41.28 71.5 41.28-71.5"/><path fill-opacity=".1" d="M1.598 143l41.28-71.5 41.28 71.5"/><path fill-opacity=".2" d="M1.598 143l41.28 71.5 41.28-71.5"/><path fill="none" d="M125.438 214.5L84.158 143l-41.28 71.5"/><path fill-opacity=".2" d="M125.438 214.5L84.158 286l-41.28-71.5M373.12 71.5L331.843 0l-41.28 71.5"/><path fill="none" d="M373.12 71.5L331.843 143l-41.28-71.5"/><path fill="#FFF" fill-opacity=".2" d="M331.842 143l41.28-71.5L414.4 143"/><path fill="#FFF" fill-opacity=".1" d="M331.842 143l41.28 71.5L414.4 143"/><path fill="none" d="M290.56 214.5l41.282-71.5 41.28 71.5"/><path fill-opacity=".1" d="M290.56 214.5l41.282 71.5 41.28-71.5"/><path fill-opacity=".2" d="M249.278 286l41.283-71.5 41.282 71.5"/><path fill="none" d="M0-65h416v416H0z"/></svg>